<?xml version="1.0"?>
<svg xmlns="http://www.w3.org/2000/svg" viewBox="0 0 800 600" width="800" height="600">
  <rect width="800" height="600" fill="#F6F1E8"></rect>
  
  <rect x="40" y="60.5" width="350" height="495" rx="6" fill="rgba(30,27,22,0.10)"></rect>
  
  <rect x="418" y="60.5" width="350" height="495" rx="6" fill="rgba(30,27,22,0.10)"></rect>
  
  <g transform="translate(36 52.5)">
    <rect width="350" height="495" rx="4" fill="#FBF7EC"></rect>
    <text x="28" y="58" font-family="Helvetica,Arial,sans-serif" font-weight="900" font-size="44" fill="#1E1B16" letter-spacing="2">БЛАНК</text>
<rect x="28" y="78" width="200" height="2" rx="1" fill="#5D5546"></rect>
<rect x="28" y="88" width="150" height="2" rx="1" fill="#5D5546"></rect>
<rect x="28" y="126" width="60" height="2" rx="1" fill="#5D5546"></rect>
<rect x="28" y="136" width="240" height="26" rx="3" fill="none" stroke="#1E1B16" stroke-width="2"></rect>
<rect x="28" y="182" width="90" height="2" rx="1" fill="#5D5546"></rect>
<rect x="28" y="192" width="210" height="26" rx="3" fill="none" stroke="#1E1B16" stroke-width="2"></rect>
<rect x="28" y="238" width="70" height="2" rx="1" fill="#5D5546"></rect>
<rect x="28" y="248" width="230" height="26" rx="3" fill="none" stroke="#1E1B16" stroke-width="2"></rect>
<rect x="28" y="294" width="100" height="2" rx="1" fill="#5D5546"></rect>
<rect x="28" y="304" width="200" height="26" rx="3" fill="none" stroke="#1E1B16" stroke-width="2"></rect>
<rect x="28" y="350" width="80" height="2" rx="1" fill="#5D5546"></rect>
<rect x="28" y="360" width="220" height="26" rx="3" fill="none" stroke="#1E1B16" stroke-width="2"></rect>
<rect x="28" y="410" width="18" height="18" rx="3" fill="none" stroke="#1E1B16" stroke-width="2"></rect>
<rect x="50" y="417" width="38" height="2" rx="1" fill="#5D5546"></rect>
<rect x="98" y="410" width="18" height="18" rx="3" fill="none" stroke="#1E1B16" stroke-width="2"></rect>
<rect x="120" y="417" width="38" height="2" rx="1" fill="#5D5546"></rect>
<rect x="168" y="410" width="18" height="18" rx="3" fill="none" stroke="#1E1B16" stroke-width="2"></rect>
<rect x="190" y="417" width="38" height="2" rx="1" fill="#5D5546"></rect>
<rect x="238" y="410" width="18" height="18" rx="3" fill="none" stroke="#1E1B16" stroke-width="2"></rect>
<rect x="260" y="417" width="38" height="2" rx="1" fill="#5D5546"></rect>
<rect x="28" y="480" width="120" height="2" rx="1" fill="#1E1B16"></rect>
<rect x="28" y="492" width="80" height="2" rx="1" fill="#5D5546"></rect>
<rect x="190" y="480" width="130" height="2" rx="1" fill="#1E1B16"></rect>
<rect x="190" y="492" width="90" height="2" rx="1" fill="#5D5546"></rect>
  </g>
  
  <g transform="translate(414 52.5)">
    <rect width="350" height="495" rx="4" fill="#FBF7EC"></rect>
    <text x="28" y="58" font-family="Helvetica,Arial,sans-serif" font-weight="900" font-size="44" fill="#1E1B16" letter-spacing="2">ФОРМА</text>
<rect x="28" y="78" width="200" height="2" rx="1" fill="#5D5546"></rect>
<rect x="28" y="88" width="150" height="2" rx="1" fill="#5D5546"></rect>
<rect x="28" y="126" width="60" height="2" rx="1" fill="#5D5546"></rect>
<rect x="28" y="136" width="240" height="26" rx="3" fill="none" stroke="#1E1B16" stroke-width="2"></rect>
<rect x="28" y="182" width="90" height="2" rx="1" fill="#5D5546"></rect>
<rect x="28" y="192" width="210" height="26" rx="3" fill="none" stroke="#1E1B16" stroke-width="2"></rect>
<rect x="28" y="238" width="70" height="2" rx="1" fill="#5D5546"></rect>
<rect x="28" y="248" width="230" height="26" rx="3" fill="none" stroke="#1E1B16" stroke-width="2"></rect>
<rect x="28" y="294" width="100" height="2" rx="1" fill="#5D5546"></rect>
<rect x="28" y="304" width="200" height="26" rx="3" fill="none" stroke="#1E1B16" stroke-width="2"></rect>
<rect x="28" y="350" width="80" height="2" rx="1" fill="#5D5546"></rect>
<rect x="28" y="360" width="220" height="26" rx="3" fill="none" stroke="#1E1B16" stroke-width="2"></rect>
<rect x="28" y="410" width="18" height="18" rx="3" fill="none" stroke="#1E1B16" stroke-width="2"></rect>
<rect x="50" y="417" width="38" height="2" rx="1" fill="#5D5546"></rect>
<rect x="98" y="410" width="18" height="18" rx="3" fill="none" stroke="#1E1B16" stroke-width="2"></rect>
<rect x="120" y="417" width="38" height="2" rx="1" fill="#5D5546"></rect>
<rect x="168" y="410" width="18" height="18" rx="3" fill="none" stroke="#1E1B16" stroke-width="2"></rect>
<rect x="190" y="417" width="38" height="2" rx="1" fill="#5D5546"></rect>
<rect x="238" y="410" width="18" height="18" rx="3" fill="none" stroke="#1E1B16" stroke-width="2"></rect>
<rect x="260" y="417" width="38" height="2" rx="1" fill="#5D5546"></rect>
<rect x="28" y="480" width="120" height="2" rx="1" fill="#1E1B16"></rect>
<rect x="28" y="492" width="80" height="2" rx="1" fill="#5D5546"></rect>
<rect x="190" y="480" width="130" height="2" rx="1" fill="#1E1B16"></rect>
<rect x="190" y="492" width="90" height="2" rx="1" fill="#5D5546"></rect>
  </g>
</svg>