<?xml version="1.0"?>
<svg xmlns="http://www.w3.org/2000/svg" viewBox="0 0 800 600" width="800" height="600">
  <rect width="800" height="600" fill="#F6F1E8"></rect>
  
  <rect x="40" y="60.5" width="350" height="495" rx="6" fill="rgba(30,27,22,0.10)"></rect>
  
  <rect x="418" y="60.5" width="350" height="495" rx="6" fill="rgba(30,27,22,0.10)"></rect>
  
  <g transform="translate(36 52.5)">
    <rect width="350" height="495" rx="4" fill="#FBF7EC"></rect>
    <rect x="75" y="36" width="200" height="6" fill="#1E1B16"></rect>
<rect x="115" y="50" width="120" height="3" fill="#5D5546"></rect>
<text x="28" y="95" font-family="Helvetica,Arial,sans-serif" font-size="11" font-weight="700" fill="#1E1B16">1.</text>
<rect x="46" y="86" width="80" height="3" rx="1.5" fill="#1E1B16"></rect>
<rect x="46" y="100" width="272" height="2" rx="1" fill="#5D5546"></rect>
<rect x="46" y="110" width="272" height="2" rx="1" fill="#5D5546"></rect>
<rect x="46" y="120" width="240" height="2" rx="1" fill="#5D5546"></rect>
<rect x="46" y="130" width="280" height="2" rx="1" fill="#5D5546"></rect>
<text x="28" y="159" font-family="Helvetica,Arial,sans-serif" font-size="11" font-weight="700" fill="#1E1B16">2.</text>
<rect x="46" y="150" width="80" height="3" rx="1.5" fill="#1E1B16"></rect>
<rect x="46" y="164" width="272" height="2" rx="1" fill="#5D5546"></rect>
<rect x="46" y="174" width="272" height="2" rx="1" fill="#5D5546"></rect>
<rect x="46" y="184" width="240" height="2" rx="1" fill="#5D5546"></rect>
<text x="28" y="213" font-family="Helvetica,Arial,sans-serif" font-size="11" font-weight="700" fill="#1E1B16">3.</text>
<rect x="46" y="204" width="80" height="3" rx="1.5" fill="#1E1B16"></rect>
<rect x="46" y="218" width="272" height="2" rx="1" fill="#5D5546"></rect>
<rect x="46" y="228" width="272" height="2" rx="1" fill="#5D5546"></rect>
<rect x="46" y="238" width="240" height="2" rx="1" fill="#5D5546"></rect>
<rect x="46" y="248" width="280" height="2" rx="1" fill="#5D5546"></rect>
<text x="28" y="277" font-family="Helvetica,Arial,sans-serif" font-size="11" font-weight="700" fill="#1E1B16">4.</text>
<rect x="46" y="268" width="80" height="3" rx="1.5" fill="#1E1B16"></rect>
<rect x="46" y="282" width="272" height="2" rx="1" fill="#5D5546"></rect>
<rect x="46" y="292" width="272" height="2" rx="1" fill="#5D5546"></rect>
<rect x="46" y="302" width="240" height="2" rx="1" fill="#5D5546"></rect>
<rect x="28" y="405" width="110" height="2" rx="1" fill="#1E1B16"></rect>
<rect x="28" y="420" width="80" height="2" rx="1" fill="#5D5546"></rect>
<path d="M30 440 q 20 -16 40 0 t 50 -4 t 30 8" stroke="#1E1B16" stroke-width="1.5" fill="none" stroke-linecap="round"></path>
<rect x="28" y="457" width="100" height="1.5" rx="0.75" fill="#1E1B16"></rect>
<g transform="translate(240 385)">
    <circle r="42" cx="42" cy="42" fill="none" stroke="#B85A3C" stroke-width="2" opacity="0.55"></circle>
    <circle r="34" cx="42" cy="42" fill="none" stroke="#B85A3C" stroke-width="1" opacity="0.55"></circle>
    <text x="42" y="48" text-anchor="middle" font-family="Helvetica,Arial,sans-serif" font-size="11" font-weight="700" fill="#B85A3C" opacity="0.7">М.П.</text>
  </g>
  </g>
  
  <g transform="translate(414 52.5)">
    <rect width="350" height="495" rx="4" fill="#FBF7EC"></rect>
    <rect x="65" y="36" width="220" height="6" fill="#1E1B16"></rect>
<rect x="109" y="50" width="132" height="3" fill="#5D5546"></rect>
<text x="28" y="95" font-family="Helvetica,Arial,sans-serif" font-size="11" font-weight="700" fill="#1E1B16">1.</text>
<rect x="46" y="86" width="80" height="3" rx="1.5" fill="#1E1B16"></rect>
<rect x="46" y="100" width="272" height="2" rx="1" fill="#5D5546"></rect>
<rect x="46" y="110" width="272" height="2" rx="1" fill="#5D5546"></rect>
<rect x="46" y="120" width="240" height="2" rx="1" fill="#5D5546"></rect>
<rect x="46" y="130" width="280" height="2" rx="1" fill="#5D5546"></rect>
<text x="28" y="159" font-family="Helvetica,Arial,sans-serif" font-size="11" font-weight="700" fill="#1E1B16">2.</text>
<rect x="46" y="150" width="80" height="3" rx="1.5" fill="#1E1B16"></rect>
<rect x="46" y="164" width="272" height="2" rx="1" fill="#5D5546"></rect>
<rect x="46" y="174" width="272" height="2" rx="1" fill="#5D5546"></rect>
<rect x="46" y="184" width="240" height="2" rx="1" fill="#5D5546"></rect>
<text x="28" y="213" font-family="Helvetica,Arial,sans-serif" font-size="11" font-weight="700" fill="#1E1B16">3.</text>
<rect x="46" y="204" width="80" height="3" rx="1.5" fill="#1E1B16"></rect>
<rect x="46" y="218" width="272" height="2" rx="1" fill="#5D5546"></rect>
<rect x="46" y="228" width="272" height="2" rx="1" fill="#5D5546"></rect>
<rect x="46" y="238" width="240" height="2" rx="1" fill="#5D5546"></rect>
<rect x="46" y="248" width="280" height="2" rx="1" fill="#5D5546"></rect>
<text x="28" y="277" font-family="Helvetica,Arial,sans-serif" font-size="11" font-weight="700" fill="#1E1B16">4.</text>
<rect x="46" y="268" width="80" height="3" rx="1.5" fill="#1E1B16"></rect>
<rect x="46" y="282" width="272" height="2" rx="1" fill="#5D5546"></rect>
<rect x="46" y="292" width="272" height="2" rx="1" fill="#5D5546"></rect>
<rect x="46" y="302" width="240" height="2" rx="1" fill="#5D5546"></rect>
<rect x="28" y="405" width="110" height="2" rx="1" fill="#1E1B16"></rect>
<rect x="28" y="420" width="80" height="2" rx="1" fill="#5D5546"></rect>
<path d="M30 440 q 20 -16 40 0 t 50 -4 t 30 8" stroke="#1E1B16" stroke-width="1.5" fill="none" stroke-linecap="round"></path>
<rect x="28" y="457" width="100" height="1.5" rx="0.75" fill="#1E1B16"></rect>
<g transform="translate(240 385)">
    <circle r="42" cx="42" cy="42" fill="none" stroke="#B85A3C" stroke-width="2" opacity="0.55"></circle>
    <circle r="34" cx="42" cy="42" fill="none" stroke="#B85A3C" stroke-width="1" opacity="0.55"></circle>
    <text x="42" y="48" text-anchor="middle" font-family="Helvetica,Arial,sans-serif" font-size="11" font-weight="700" fill="#B85A3C" opacity="0.7">М.П.</text>
  </g>
  </g>
</svg>