<?xml version="1.0"?>
<svg xmlns="http://www.w3.org/2000/svg" viewBox="0 0 800 600" width="800" height="600">
  <rect width="800" height="600" fill="#F6F1E8"></rect>
  
  <rect x="40" y="60.5" width="350" height="495" rx="6" fill="rgba(30,27,22,0.10)"></rect>
  
  <rect x="418" y="60.5" width="350" height="495" rx="6" fill="rgba(30,27,22,0.10)"></rect>
  
  <g transform="translate(36 52.5)">
    <rect width="350" height="495" rx="4" fill="#FBF7EC"></rect>
    <rect x="28" y="40" width="240" height="12" rx="6" fill="#1E1B16"></rect>
<rect x="28" y="65" width="180" height="12" rx="6" fill="#1E1B16"></rect>
<rect x="28" y="95" width="80" height="4" rx="2" fill="#B85A3C"></rect>
<rect x="28" y="125" width="294" height="3" rx="1.5" fill="#5D5546"></rect>
<rect x="28" y="139" width="294" height="3" rx="1.5" fill="#5D5546"></rect>
<rect x="28" y="153" width="264" height="3" rx="1.5" fill="#5D5546"></rect>
<rect x="28" y="167" width="280" height="3" rx="1.5" fill="#5D5546"></rect>
<rect x="28" y="181" width="294" height="3" rx="1.5" fill="#5D5546"></rect>
<rect x="28" y="195" width="250" height="3" rx="1.5" fill="#5D5546"></rect>
<circle cx="34" cy="245" r="3.5" fill="#B85A3C"></circle>
<rect x="48" y="240" width="200" height="3" rx="1.5" fill="#1E1B16"></rect>
<rect x="48" y="249" width="160" height="2" rx="1" fill="#5D5546"></rect>
<circle cx="34" cy="271" r="3.5" fill="#B85A3C"></circle>
<rect x="48" y="266" width="188" height="3" rx="1.5" fill="#1E1B16"></rect>
<rect x="48" y="275" width="160" height="2" rx="1" fill="#5D5546"></rect>
<circle cx="34" cy="297" r="3.5" fill="#B85A3C"></circle>
<rect x="48" y="292" width="176" height="3" rx="1.5" fill="#1E1B16"></rect>
<rect x="48" y="301" width="160" height="2" rx="1" fill="#5D5546"></rect>
<circle cx="34" cy="323" r="3.5" fill="#B85A3C"></circle>
<rect x="48" y="318" width="164" height="3" rx="1.5" fill="#1E1B16"></rect>
<rect x="48" y="327" width="160" height="2" rx="1" fill="#5D5546"></rect>
<g transform="translate(260 400)">
    <rect width="62" height="62" fill="#1E1B16"></rect>
    <g fill="#FBF7EC">
      <rect x="6" y="6" width="14" height="14"></rect>
      <rect x="42" y="6" width="14" height="14"></rect>
      <rect x="6" y="42" width="14" height="14"></rect>
      <rect x="26" y="26" width="6" height="6"></rect>
      <rect x="36" y="32" width="6" height="6"></rect>
      <rect x="44" y="24" width="4" height="10"></rect>
      <rect x="26" y="42" width="4" height="4"></rect>
      <rect x="34" y="46" width="6" height="6"></rect>
    </g>
  </g>
<rect x="28" y="410" width="150" height="4" rx="2" fill="#1E1B16"></rect>
<rect x="28" y="425" width="180" height="2" rx="1" fill="#5D5546"></rect>
<rect x="28" y="435" width="140" height="2" rx="1" fill="#5D5546"></rect>
<rect x="28" y="445" width="160" height="2" rx="1" fill="#5D5546"></rect>
  </g>
  
  <g transform="translate(414 52.5)">
    <rect width="350" height="495" rx="4" fill="#FBF7EC"></rect>
    <rect x="28" y="40" width="200" height="10" rx="5" fill="#1E1B16"></rect>
<rect x="28" y="62" width="110" height="4" rx="2" fill="#B85A3C"></rect>
<rect x="28" y="90" width="140" height="2" rx="1" fill="#5D5546"></rect>
<rect x="28" y="101" width="140" height="2" rx="1" fill="#5D5546"></rect>
<rect x="28" y="112" width="130" height="2" rx="1" fill="#5D5546"></rect>
<rect x="28" y="123" width="140" height="2" rx="1" fill="#5D5546"></rect>
<rect x="28" y="134" width="120" height="2" rx="1" fill="#5D5546"></rect>
<rect x="28" y="145" width="140" height="2" rx="1" fill="#5D5546"></rect>
<rect x="28" y="156" width="110" height="2" rx="1" fill="#5D5546"></rect>
<rect x="28" y="167" width="140" height="2" rx="1" fill="#5D5546"></rect>
<rect x="28" y="178" width="130" height="2" rx="1" fill="#5D5546"></rect>
<rect x="180" y="90" width="140" height="2" rx="1" fill="#5D5546"></rect>
<rect x="180" y="101" width="140" height="2" rx="1" fill="#5D5546"></rect>
<rect x="180" y="112" width="130" height="2" rx="1" fill="#5D5546"></rect>
<rect x="180" y="123" width="140" height="2" rx="1" fill="#5D5546"></rect>
<rect x="180" y="134" width="120" height="2" rx="1" fill="#5D5546"></rect>
<rect x="180" y="145" width="140" height="2" rx="1" fill="#5D5546"></rect>
<rect x="180" y="156" width="110" height="2" rx="1" fill="#5D5546"></rect>
<rect x="180" y="167" width="140" height="2" rx="1" fill="#5D5546"></rect>
<rect x="180" y="178" width="130" height="2" rx="1" fill="#5D5546"></rect>
<rect x="28" y="365" width="294" height="60" rx="6" fill="#1E1B16"></rect>
<rect x="40" y="380" width="180" height="5" rx="2.5" fill="#FBF7EC"></rect>
<rect x="40" y="395" width="220" height="2" rx="1" fill="#C5BBA5"></rect>
<rect x="40" y="405" width="180" height="2" rx="1" fill="#C5BBA5"></rect>
<rect x="28" y="445" width="100" height="2" rx="1" fill="#5D5546"></rect>
<rect x="28" y="455" width="140" height="2" rx="1" fill="#5D5546"></rect>
  </g>
</svg>