<?xml version="1.0"?>
<svg xmlns="http://www.w3.org/2000/svg" viewBox="0 0 800 600" width="800" height="600">
  <rect width="800" height="600" fill="#F6F1E8"></rect>
  
  <rect x="40" y="60.5" width="350" height="495" rx="6" fill="rgba(30,27,22,0.10)"></rect>
  
  <rect x="418" y="60.5" width="350" height="495" rx="6" fill="rgba(30,27,22,0.10)"></rect>
  
  <g transform="translate(36 52.5)">
    <rect width="350" height="495" rx="4" fill="#FBF7EC"></rect>
    <rect x="0" y="0" width="350" height="56" fill="#1E1B16"></rect>
<rect x="28" y="22" width="160" height="4" rx="2" fill="#FBF7EC"></rect>
<rect x="28" y="36" width="100" height="2" rx="1" fill="#C5BBA5"></rect>
<rect x="28" y="76" width="70" height="2" rx="1" fill="#5D5546"></rect>
<rect x="28" y="84" width="294" height="22" rx="2" fill="none" stroke="#1E1B16" stroke-width="1.5"></rect>
<rect x="36" y="94" width="120" height="2" rx="1" fill="#1E1B16"></rect>
<rect x="28" y="116" width="70" height="2" rx="1" fill="#5D5546"></rect>
<rect x="28" y="124" width="294" height="22" rx="2" fill="none" stroke="#1E1B16" stroke-width="1.5"></rect>
<rect x="36" y="134" width="160" height="2" rx="1" fill="#1E1B16"></rect>
<rect x="28" y="156" width="70" height="2" rx="1" fill="#5D5546"></rect>
<rect x="28" y="164" width="294" height="22" rx="2" fill="none" stroke="#1E1B16" stroke-width="1.5"></rect>
<rect x="36" y="174" width="120" height="2" rx="1" fill="#1E1B16"></rect>
<rect x="28" y="196" width="70" height="2" rx="1" fill="#5D5546"></rect>
<rect x="28" y="204" width="294" height="22" rx="2" fill="none" stroke="#1E1B16" stroke-width="1.5"></rect>
<rect x="36" y="214" width="160" height="2" rx="1" fill="#1E1B16"></rect>
<rect x="28" y="246" width="120" height="3" rx="1.5" fill="#1E1B16"></rect>
<rect x="28" y="262" width="294" height="130" fill="none" stroke="#1E1B16" stroke-width="1.2"></rect>
<line x1="64.75" y1="262" x2="64.75" y2="392" stroke="#DCCDB1" stroke-width="1"></line>
<line x1="101.5" y1="262" x2="101.5" y2="392" stroke="#DCCDB1" stroke-width="1"></line>
<line x1="138.25" y1="262" x2="138.25" y2="392" stroke="#DCCDB1" stroke-width="1"></line>
<line x1="175" y1="262" x2="175" y2="392" stroke="#DCCDB1" stroke-width="1"></line>
<line x1="211.75" y1="262" x2="211.75" y2="392" stroke="#DCCDB1" stroke-width="1"></line>
<line x1="248.5" y1="262" x2="248.5" y2="392" stroke="#DCCDB1" stroke-width="1"></line>
<line x1="285.25" y1="262" x2="285.25" y2="392" stroke="#DCCDB1" stroke-width="1"></line>
<line x1="28" y1="288" x2="322" y2="288" stroke="#DCCDB1" stroke-width="1"></line>
<line x1="28" y1="314" x2="322" y2="314" stroke="#DCCDB1" stroke-width="1"></line>
<line x1="28" y1="340" x2="322" y2="340" stroke="#DCCDB1" stroke-width="1"></line>
<line x1="28" y1="366" x2="322" y2="366" stroke="#DCCDB1" stroke-width="1"></line>
<polyline points="28,327 64.75,346.93315346956956 101.5,350.26773366458946 138.25,332.9666366465472 175,306.6094275877441 211.75,289.6291567053773 248.5,293.36259434843237 285.25,313.4707892135618 322,333.2227001877763" fill="none" stroke="#B85A3C" stroke-width="2.5" stroke-linecap="round" stroke-linejoin="round"></polyline>
<circle cx="28" cy="327" r="2.5" fill="#B85A3C"></circle>
<circle cx="64.75" cy="346.93315346956956" r="2.5" fill="#B85A3C"></circle>
<circle cx="101.5" cy="350.26773366458946" r="2.5" fill="#B85A3C"></circle>
<circle cx="138.25" cy="332.9666366465472" r="2.5" fill="#B85A3C"></circle>
<circle cx="175" cy="306.6094275877441" r="2.5" fill="#B85A3C"></circle>
<circle cx="211.75" cy="289.6291567053773" r="2.5" fill="#B85A3C"></circle>
<circle cx="248.5" cy="293.36259434843237" r="2.5" fill="#B85A3C"></circle>
<circle cx="285.25" cy="313.4707892135618" r="2.5" fill="#B85A3C"></circle>
<circle cx="322" cy="333.2227001877763" r="2.5" fill="#B85A3C"></circle>
  </g>
  
  <g transform="translate(414 52.5)">
    <rect width="350" height="495" rx="4" fill="#FBF7EC"></rect>
    <rect x="0" y="0" width="350" height="44" fill="#B85A3C"></rect>
<rect x="28" y="18" width="140" height="4" rx="2" fill="#FBF7EC"></rect>
<rect x="28" y="30" width="80" height="2" rx="1" fill="#F0CFC2"></rect>
<rect x="28" y="70" width="64" height="22" rx="2" fill="#1E1B16"></rect>
<rect x="36" y="81" width="48" height="2" rx="1" fill="#FBF7EC"></rect>
<rect x="100" y="70" width="180" height="3" rx="1.5" fill="#1E1B16"></rect>
<rect x="100" y="80" width="200" height="2" rx="1" fill="#5D5546"></rect>
<rect x="100" y="88" width="160" height="2" rx="1" fill="#5D5546"></rect>
<rect x="28" y="120" width="64" height="22" rx="2" fill="#1E1B16"></rect>
<rect x="36" y="131" width="48" height="2" rx="1" fill="#FBF7EC"></rect>
<rect x="100" y="120" width="180" height="3" rx="1.5" fill="#1E1B16"></rect>
<rect x="100" y="130" width="200" height="2" rx="1" fill="#5D5546"></rect>
<rect x="100" y="138" width="160" height="2" rx="1" fill="#5D5546"></rect>
<rect x="28" y="170" width="64" height="22" rx="2" fill="#1E1B16"></rect>
<rect x="36" y="181" width="48" height="2" rx="1" fill="#FBF7EC"></rect>
<rect x="100" y="170" width="180" height="3" rx="1.5" fill="#1E1B16"></rect>
<rect x="100" y="180" width="200" height="2" rx="1" fill="#5D5546"></rect>
<rect x="100" y="188" width="160" height="2" rx="1" fill="#5D5546"></rect>
<rect x="28" y="220" width="64" height="22" rx="2" fill="#1E1B16"></rect>
<rect x="36" y="231" width="48" height="2" rx="1" fill="#FBF7EC"></rect>
<rect x="100" y="220" width="180" height="3" rx="1.5" fill="#1E1B16"></rect>
<rect x="100" y="230" width="200" height="2" rx="1" fill="#5D5546"></rect>
<rect x="100" y="238" width="160" height="2" rx="1" fill="#5D5546"></rect>
<rect x="28" y="270" width="64" height="22" rx="2" fill="#1E1B16"></rect>
<rect x="36" y="281" width="48" height="2" rx="1" fill="#FBF7EC"></rect>
<rect x="100" y="270" width="180" height="3" rx="1.5" fill="#1E1B16"></rect>
<rect x="100" y="280" width="200" height="2" rx="1" fill="#5D5546"></rect>
<rect x="100" y="288" width="160" height="2" rx="1" fill="#5D5546"></rect>
<rect x="28" y="320" width="64" height="22" rx="2" fill="#1E1B16"></rect>
<rect x="36" y="331" width="48" height="2" rx="1" fill="#FBF7EC"></rect>
<rect x="100" y="320" width="180" height="3" rx="1.5" fill="#1E1B16"></rect>
<rect x="100" y="330" width="200" height="2" rx="1" fill="#5D5546"></rect>
<rect x="100" y="338" width="160" height="2" rx="1" fill="#5D5546"></rect>
<path d="M210 445 q 14 -14 30 -4 t 40 -2" stroke="#1E1B16" stroke-width="1.5" fill="none" stroke-linecap="round"></path>
<rect x="200" y="465" width="130" height="1.5" rx="0.75" fill="#1E1B16"></rect>
<rect x="200" y="477" width="80" height="2" rx="1" fill="#5D5546"></rect>
  </g>
</svg>