<?xml version="1.0"?>
<svg xmlns="http://www.w3.org/2000/svg" viewBox="0 0 800 600" width="800" height="600">
  <rect width="800" height="600" fill="#F6F1E8"></rect>
  
  <rect x="40" y="60.5" width="350" height="495" rx="6" fill="rgba(30,27,22,0.10)"></rect>
  
  <rect x="418" y="60.5" width="350" height="495" rx="6" fill="rgba(30,27,22,0.10)"></rect>
  
  <g transform="translate(36 52.5)">
    <rect width="350" height="495" rx="4" fill="#FBF7EC"></rect>
    <text x="28" y="120" font-family="Helvetica,Arial,sans-serif" font-weight="900" font-size="76" fill="#1E1B16" letter-spacing="-2">ОБЪЯВ-</text>
<text x="28" y="190" font-family="Helvetica,Arial,sans-serif" font-weight="900" font-size="76" fill="#B85A3C" letter-spacing="-2">ЛЕНИЕ</text>
<rect x="28" y="210" width="294" height="3" fill="#1E1B16"></rect>
<rect x="28" y="235" width="294" height="4" rx="2" fill="#1E1B16"></rect>
<rect x="28" y="249" width="294" height="4" rx="2" fill="#1E1B16"></rect>
<rect x="28" y="263" width="260" height="4" rx="2" fill="#1E1B16"></rect>
<rect x="28" y="277" width="280" height="4" rx="2" fill="#1E1B16"></rect>
<rect x="28" y="291" width="294" height="4" rx="2" fill="#1E1B16"></rect>
<rect x="28" y="305" width="250" height="4" rx="2" fill="#1E1B16"></rect>
<line x1="28" y1="375" x2="322" y2="375" stroke="#5D5546" stroke-width="1.5" stroke-dasharray="4 4"></line>
<g transform="translate(32 395) rotate(-90)">
      <rect width="80" height="44" rx="3" fill="none" stroke="#1E1B16" stroke-width="1.5"></rect>
      <rect x="6" y="6" width="40" height="3" fill="#1E1B16"></rect>
      <rect x="6" y="14" width="60" height="2" fill="#5D5546"></rect>
      <rect x="6" y="22" width="50" height="2" fill="#5D5546"></rect>
      <rect x="6" y="30" width="60" height="3" fill="#B85A3C"></rect>
    </g>
<g transform="translate(84 395) rotate(-90)">
      <rect width="80" height="44" rx="3" fill="none" stroke="#1E1B16" stroke-width="1.5"></rect>
      <rect x="6" y="6" width="40" height="3" fill="#1E1B16"></rect>
      <rect x="6" y="14" width="60" height="2" fill="#5D5546"></rect>
      <rect x="6" y="22" width="50" height="2" fill="#5D5546"></rect>
      <rect x="6" y="30" width="60" height="3" fill="#B85A3C"></rect>
    </g>
<g transform="translate(136 395) rotate(-90)">
      <rect width="80" height="44" rx="3" fill="none" stroke="#1E1B16" stroke-width="1.5"></rect>
      <rect x="6" y="6" width="40" height="3" fill="#1E1B16"></rect>
      <rect x="6" y="14" width="60" height="2" fill="#5D5546"></rect>
      <rect x="6" y="22" width="50" height="2" fill="#5D5546"></rect>
      <rect x="6" y="30" width="60" height="3" fill="#B85A3C"></rect>
    </g>
<g transform="translate(188 395) rotate(-90)">
      <rect width="80" height="44" rx="3" fill="none" stroke="#1E1B16" stroke-width="1.5"></rect>
      <rect x="6" y="6" width="40" height="3" fill="#1E1B16"></rect>
      <rect x="6" y="14" width="60" height="2" fill="#5D5546"></rect>
      <rect x="6" y="22" width="50" height="2" fill="#5D5546"></rect>
      <rect x="6" y="30" width="60" height="3" fill="#B85A3C"></rect>
    </g>
<g transform="translate(240 395) rotate(-90)">
      <rect width="80" height="44" rx="3" fill="none" stroke="#1E1B16" stroke-width="1.5"></rect>
      <rect x="6" y="6" width="40" height="3" fill="#1E1B16"></rect>
      <rect x="6" y="14" width="60" height="2" fill="#5D5546"></rect>
      <rect x="6" y="22" width="50" height="2" fill="#5D5546"></rect>
      <rect x="6" y="30" width="60" height="3" fill="#B85A3C"></rect>
    </g>
<g transform="translate(292 395) rotate(-90)">
      <rect width="80" height="44" rx="3" fill="none" stroke="#1E1B16" stroke-width="1.5"></rect>
      <rect x="6" y="6" width="40" height="3" fill="#1E1B16"></rect>
      <rect x="6" y="14" width="60" height="2" fill="#5D5546"></rect>
      <rect x="6" y="22" width="50" height="2" fill="#5D5546"></rect>
      <rect x="6" y="30" width="60" height="3" fill="#B85A3C"></rect>
    </g>
  </g>
  
  <g transform="translate(414 52.5)">
    <rect width="350" height="495" rx="4" fill="#FBF7EC"></rect>
    <rect x="0" y="0" width="350" height="80" fill="#1E1B16"></rect>
<text x="28" y="50" font-family="Helvetica,Arial,sans-serif" font-weight="800" font-size="34" fill="#FBF7EC" letter-spacing="1">МЕНЮ</text>
<text x="28" y="122" font-family="Helvetica,Arial,sans-serif" font-size="13" font-weight="600" fill="#1E1B16">— — —</text>
<rect x="28" y="132" width="220" height="3" rx="1.5" fill="#1E1B16"></rect>
<rect x="28" y="142" width="154" height="2" rx="1" fill="#5D5546"></rect>
<line x1="254" y1="134" x2="270" y2="134" stroke="#DCCDB1" stroke-width="1" stroke-dasharray="2 4"></line>
<text x="322" y="136" text-anchor="end" font-family="Helvetica,Arial,sans-serif" font-size="14" font-weight="700" fill="#B85A3C">120 ₽</text>
<text x="28" y="170" font-family="Helvetica,Arial,sans-serif" font-size="13" font-weight="600" fill="#1E1B16">— — —</text>
<rect x="28" y="180" width="180" height="3" rx="1.5" fill="#1E1B16"></rect>
<rect x="28" y="190" width="125.99999999999999" height="2" rx="1" fill="#5D5546"></rect>
<line x1="214" y1="182" x2="270" y2="182" stroke="#DCCDB1" stroke-width="1" stroke-dasharray="2 4"></line>
<text x="322" y="184" text-anchor="end" font-family="Helvetica,Arial,sans-serif" font-size="14" font-weight="700" fill="#B85A3C">80 ₽</text>
<text x="28" y="218" font-family="Helvetica,Arial,sans-serif" font-size="13" font-weight="600" fill="#1E1B16">— — —</text>
<rect x="28" y="228" width="240" height="3" rx="1.5" fill="#1E1B16"></rect>
<rect x="28" y="238" width="168" height="2" rx="1" fill="#5D5546"></rect>
<line x1="274" y1="230" x2="270" y2="230" stroke="#DCCDB1" stroke-width="1" stroke-dasharray="2 4"></line>
<text x="322" y="232" text-anchor="end" font-family="Helvetica,Arial,sans-serif" font-size="14" font-weight="700" fill="#B85A3C">160 ₽</text>
<text x="28" y="266" font-family="Helvetica,Arial,sans-serif" font-size="13" font-weight="600" fill="#1E1B16">— — —</text>
<rect x="28" y="276" width="200" height="3" rx="1.5" fill="#1E1B16"></rect>
<rect x="28" y="286" width="140" height="2" rx="1" fill="#5D5546"></rect>
<line x1="234" y1="278" x2="270" y2="278" stroke="#DCCDB1" stroke-width="1" stroke-dasharray="2 4"></line>
<text x="322" y="280" text-anchor="end" font-family="Helvetica,Arial,sans-serif" font-size="14" font-weight="700" fill="#B85A3C">95 ₽</text>
<text x="28" y="314" font-family="Helvetica,Arial,sans-serif" font-size="13" font-weight="600" fill="#1E1B16">— — —</text>
<rect x="28" y="324" width="210" height="3" rx="1.5" fill="#1E1B16"></rect>
<rect x="28" y="334" width="147" height="2" rx="1" fill="#5D5546"></rect>
<line x1="244" y1="326" x2="270" y2="326" stroke="#DCCDB1" stroke-width="1" stroke-dasharray="2 4"></line>
<text x="322" y="328" text-anchor="end" font-family="Helvetica,Arial,sans-serif" font-size="14" font-weight="700" fill="#B85A3C">140 ₽</text>
<text x="28" y="362" font-family="Helvetica,Arial,sans-serif" font-size="13" font-weight="600" fill="#1E1B16">— — —</text>
<rect x="28" y="372" width="170" height="3" rx="1.5" fill="#1E1B16"></rect>
<rect x="28" y="382" width="118.99999999999999" height="2" rx="1" fill="#5D5546"></rect>
<line x1="204" y1="374" x2="270" y2="374" stroke="#DCCDB1" stroke-width="1" stroke-dasharray="2 4"></line>
<text x="322" y="376" text-anchor="end" font-family="Helvetica,Arial,sans-serif" font-size="14" font-weight="700" fill="#B85A3C">60 ₽</text>
<text x="28" y="410" font-family="Helvetica,Arial,sans-serif" font-size="13" font-weight="600" fill="#1E1B16">— — —</text>
<rect x="28" y="420" width="230" height="3" rx="1.5" fill="#1E1B16"></rect>
<rect x="28" y="430" width="161" height="2" rx="1" fill="#5D5546"></rect>
<line x1="264" y1="422" x2="270" y2="422" stroke="#DCCDB1" stroke-width="1" stroke-dasharray="2 4"></line>
<text x="322" y="424" text-anchor="end" font-family="Helvetica,Arial,sans-serif" font-size="14" font-weight="700" fill="#B85A3C">180 ₽</text>
  </g>
</svg>